<?xml version="1.0" standalone="no"?><!DOCTYPE svg PUBLIC "-//W3C//DTD SVG 1.1//EN" "http://www.w3.org/Graphics/SVG/1.1/DTD/svg11.dtd"><svg t="1780631302283" class="icon" viewBox="0 0 1024 1024" version="1.1" xmlns="http://www.w3.org/2000/svg" p-id="6996" xmlns:xlink="http://www.w3.org/1999/xlink" width="256" height="256"><path d="M846.6 608.35c8.8 30.6 13.51 62.92 13.51 96.35v59.06c0 22.42-7.76 43.12-20.73 59.53a97.312 97.312 0 0 1-16.1 16.1c-16.42 12.97-37.11 20.73-59.53 20.73-6.93 0-13.7-0.75-20.22-2.15-25.47-5.5-47.28-21.14-60.96-42.45-9.6-14.97-15.18-32.75-15.18-51.76V512c0-85.16-68.49-154.32-153.4-155.4 55.11 0.31 107.18 13.43 153.4 36.52 86.28 43.1 152.12 120.97 179.21 215.23z" fill="#4770DC" p-id="6997"></path><path d="M608.35 177.4c-103.24 29.66-186.82 105.83-226.59 204.37-16 39.64-24.92 82.9-25.16 128.22-0.01 0.67-0.01 1.34-0.01 2.01v251.76c0 19.01-5.58 36.79-15.18 51.76-17.17 26.77-47.18 44.6-81.17 44.6-30.57 0-57.95-14.43-75.63-36.83-12.97-16.41-20.73-37.11-20.73-59.53V512c0-136.41 78.45-254.49 192.71-311.59 46.77-23.37 99.56-36.53 155.41-36.53 33.43 0 65.76 4.71 96.35 13.52z" fill="#97B4FF" p-id="6998"></path><path d="M860.12 512v192.71c0-33.43-4.71-65.76-13.51-96.35-27.09-94.27-92.94-172.13-179.19-215.24-46.21-23.09-98.28-36.2-153.4-36.52-0.67-0.01-1.34-0.01-2.01-0.01-0.67 0-1.34 0-2.01 0.01-84.23 1.07-152.31 69.15-153.38 153.38 0.25-45.32 9.16-88.58 25.16-128.22 39.77-98.54 123.35-174.71 226.59-204.37a345.233 345.233 0 0 1 59.06 23.01C781.67 257.51 860.12 375.59 860.12 512z" fill="#6F94F4" p-id="6999"></path></svg>