<?xml version="1.0" standalone="no"?><!DOCTYPE svg PUBLIC "-//W3C//DTD SVG 1.1//EN" "http://www.w3.org/Graphics/SVG/1.1/DTD/svg11.dtd"><svg t="1778570278365" class="icon" viewBox="0 0 1024 1024" version="1.1" xmlns="http://www.w3.org/2000/svg" p-id="1742" xmlns:xlink="http://www.w3.org/1999/xlink" width="256" height="256"><path d="M938.666667 162.688c-40.576 116.266667-81.194667 193.877333-121.770667 232.704l-40.746667 38.912 40.661334 38.741333c-40.661333 116.352-162.56 232.746667-325.12 252.16l-10.026667 1.365334c-102.570667 16.085333-166.997333 86.741333-193.194667 212.010666H207.274667l2.56-14.890666C251.477333 683.52 341.802667 162.730667 938.666667 162.688z m-95.445334 69.12c-216.106667 24.064-343.04 130.346667-423.253333 255.829333-52.096 81.536-85.077333 172.202667-107.648 257.450667l0.896-0.981333c45.312-47.530667 103.68-74.410667 170.922667-82.432 119.381333-14.250667 212.309333-91.136 256.085333-173.226667l-8.277333-7.850667-48.469334-46.250666 48.469334-46.293334 40.746666-38.954666c20.138667-19.285333 44.074667-56.789333 70.528-117.333334zM228.778667 97.664a20.949333 20.949333 0 0 1 38.229333 0l10.282667 23.722667A173.226667 173.226667 0 0 0 368.768 211.626667l29.098667 12.373333a20.181333 20.181333 0 0 1 0 37.333333l-30.805334 13.141334-7.466666 3.328a173.098667 173.098667 0 0 0-82.730667 83.968v0.042666l-10.026667 21.888a20.992 20.992 0 0 1-36.352 2.858667l-1.578666-2.858667-10.026667-21.930666a173.141333 173.141333 0 0 0-82.688-83.968l-7.466667-3.328-30.890666-13.141334a20.181333 20.181333 0 0 1 0-37.333333l19.328-8.234667 9.813333-4.138666A173.525333 173.525333 0 0 0 215.04 128.853333l3.456-7.466666 10.325333-23.722667z m19.114666 98.773333c-13.397333 17.408-29.098667 32.853333-46.762666 45.952 17.578667 12.8 33.28 27.946667 46.762666 44.970667 13.44-17.066667 29.141333-32.213333 46.677334-44.970667A237.269333 237.269333 0 0 1 247.893333 196.437333z" p-id="1743" fill="#be561b"></path></svg>