<?xml version="1.0" standalone="no"?><!DOCTYPE svg PUBLIC "-//W3C//DTD SVG 1.1//EN" "http://www.w3.org/Graphics/SVG/1.1/DTD/svg11.dtd"><svg class="icon" width="256px" height="256.00px" viewBox="0 0 1024 1024" version="1.1" xmlns="http://www.w3.org/2000/svg"><path d="M149.333333 64m106.666667 0l512 0q106.666667 0 106.666667 106.666667l0 256q0 106.666667-106.666667 106.666666l-512 0q-106.666667 0-106.666667-106.666666l0-256q0-106.666667 106.666667-106.666667Z" fill="#757CFF" /><path d="M256 426.666667m106.666667 0l298.666666 0q106.666667 0 106.666667 106.666666l0 298.666667q0 106.666667-106.666667 106.666667l-298.666666 0q-106.666667 0-106.666667-106.666667l0-298.666667q0-106.666667 106.666667-106.666666Z" fill="#A5FFDB" /><path d="M661.333333 426.666667a106.666667 106.666667 0 0 1 106.666667 106.666666H256a106.666667 106.666667 0 0 1 106.666667-106.666666h298.666666z" fill="#3842FF" /></svg>