<?xml version="1.0" standalone="no"?><!DOCTYPE svg PUBLIC "-//W3C//DTD SVG 1.1//EN" "http://www.w3.org/Graphics/SVG/1.1/DTD/svg11.dtd"><svg class="icon" width="256px" height="251.10px" viewBox="0 0 1044 1024" version="1.1" xmlns="http://www.w3.org/2000/svg"><path d="M362.041752 149.976413m75.424723 75.424723l211.189225 211.189226q75.424723 75.424723 0 150.849446l-211.189225 211.189226q-75.424723 75.424723-150.849447 0l-211.189225-211.189226q-75.424723-75.424723 0-150.849446l211.189225-211.189226q75.424723-75.424723 150.849447 0Z" fill="#A5FFDB" /><path d="M554.048 149.333333m106.666667 0l256 0q106.666667 0 106.666666 106.666667l0 512q0 106.666667-106.666666 106.666667l-256 0q-106.666667 0-106.666667-106.666667l0-512q0-106.666667 106.666667-106.666667Z" fill="#757CFF" /><path d="M554.026667 341.952l94.634666 94.613333a106.666667 106.666667 0 0 1 0 150.869334L554.026667 682.026667V341.952z" fill="#3842FF" /></svg>